<svg xmlns="http://www.w3.org/2000/svg" width="30" height="30" fill="none" viewBox="0 0 512 512">
    <path fill="black" d="M505.46 317.522L459.525 292.129C464.161 268.181 464.161 243.613 459.525 219.665L505.46 194.271C510.744 191.381 513.116 185.394 511.391 179.82C499.422 143.071 479.042 109.833 452.408 82.1684C448.31 77.9362 441.625 76.9039 436.449 79.7942L390.513 105.188C371.212 89.291 348.999 77.0071 324.953 68.9555V18.2719C324.953 12.4912 320.747 7.4332 314.817 6.19449C275.243 -2.26999 234.699 -1.85709 197.066 6.19449C191.136 7.4332 186.93 12.4912 186.93 18.2719V69.0588C162.992 77.2136 140.779 89.4974 121.369 105.291L75.5416 79.8974C70.2579 77.0071 63.6803 77.9362 59.5828 82.2716C32.9487 109.833 12.5688 143.071 0.599664 179.923C-1.23345 185.497 1.24665 191.484 6.53032 194.374L52.466 219.768C47.8293 243.716 47.8293 268.284 52.466 292.232L6.53032 317.626C1.24665 320.516 -1.12562 326.503 0.599664 332.077C12.5688 368.825 32.9487 402.064 59.5828 429.728C63.6803 433.961 70.3658 434.993 75.5416 432.103L121.477 406.709C140.779 422.606 162.992 434.89 187.038 442.941V493.728C187.038 499.509 191.243 504.567 197.174 505.805C236.748 514.27 277.292 513.857 314.925 505.805C320.855 504.567 325.061 499.509 325.061 493.728V442.941C348.999 434.786 371.212 422.503 390.621 406.709L436.557 432.103C441.841 434.993 448.418 434.064 452.516 429.728C479.15 402.167 499.53 368.929 511.499 332.077C513.116 326.4 510.744 320.413 505.46 317.522ZM255.941 338.477C208.388 338.477 169.677 301.419 169.677 255.897C169.677 210.374 208.388 173.316 255.941 173.316C303.495 173.316 342.206 210.374 342.206 255.897C342.206 301.419 303.495 338.477 255.941 338.477Z"/>
</svg>
