<svg width="30" height="30" viewBox="0 0 30 30" fill="none" xmlns="http://www.w3.org/2000/svg">
<rect x="0.5" y="0.5" width="29" height="29" fill="#C4C4C4" stroke="white"/>
<path d="M6.15688 23.8127L2 16.6392L6.15688 9.46567H10.5595L6.38213 16.6392L10.5595 23.8127H6.15688Z" fill="white"/>
<path d="M15.1419 8.00499C14.5276 8.00499 14.0225 7.72368 13.6266 7.16105C13.2443 6.57678 13.0532 5.86267 13.0532 5.01873C13.0532 4.15314 13.2443 3.43904 13.6266 2.8764C14.0225 2.29213 14.5276 2 15.1419 2C15.7426 2 16.234 2.29213 16.6163 2.8764C17.0122 3.43904 17.2101 4.15314 17.2101 5.01873C17.2101 5.86267 17.0122 6.57678 16.6163 7.16105C16.234 7.72368 15.7426 8.00499 15.1419 8.00499ZM16.8825 9.88764V28H13.3809V9.88764H16.8825Z" fill="white"/>
<path d="M19.4405 9.46567H23.8431L28 16.6392L23.8431 23.8127H19.4405L23.6179 16.6392L19.4405 9.46567Z" fill="white"/>
</svg>
