<svg width="30" height="30" viewBox="0 0 30 30" fill="none" xmlns="http://www.w3.org/2000/svg">
<rect x="0.5" y="0.5" width="29" height="29" fill="#C4C4C4" stroke="white"/>
<path d="M8.12282 17.1508H4.80154L4.26912 19.3285H2L5.21987 7H7.72984L10.9497 19.3285H8.65524L8.12282 17.1508ZM7.56505 14.8326L6.46218 10.3192L5.37199 14.8326H7.56505Z" fill="white"/>
<path d="M14.0974 10.9163C14.3087 10.4597 14.6002 10.0909 14.9721 9.80992C15.3439 9.52893 15.7792 9.38843 16.2778 9.38843C16.8609 9.38843 17.3891 9.59332 17.8623 10.0031C18.3356 10.4129 18.7075 10.9983 18.9779 11.7593C19.2568 12.5203 19.3962 13.4043 19.3962 14.4112C19.3962 15.418 19.2568 16.3079 18.9779 17.0806C18.7075 17.8416 18.3356 18.4329 17.8623 18.8543C17.3891 19.2641 16.8609 19.469 16.2778 19.469C15.7876 19.469 15.3524 19.3285 14.9721 19.0475C14.6002 18.7665 14.3087 18.4036 14.0974 17.9587V24H11.9297V9.52893H14.0974V10.9163ZM17.1905 14.4112C17.1905 13.6618 17.0384 13.0764 16.7341 12.655C16.4383 12.2218 16.0707 12.0052 15.6313 12.0052C15.2003 12.0052 14.8326 12.2218 14.5284 12.655C14.2326 13.0882 14.0847 13.6794 14.0847 14.4287C14.0847 15.178 14.2326 15.7693 14.5284 16.2025C14.8326 16.6357 15.2003 16.8523 15.6313 16.8523C16.0623 16.8523 16.4299 16.6357 16.7341 16.2025C17.0384 15.7576 17.1905 15.1605 17.1905 14.4112Z" fill="white"/>
<path d="M22.7012 10.9163C22.9124 10.4597 23.204 10.0909 23.5759 9.80992C23.9477 9.52893 24.3829 9.38843 24.8815 9.38843C25.4647 9.38843 25.9929 9.59332 26.4661 10.0031C26.9394 10.4129 27.3112 10.9983 27.5817 11.7593C27.8606 12.5203 28 13.4043 28 14.4112C28 15.418 27.8606 16.3079 27.5817 17.0806C27.3112 17.8416 26.9394 18.4329 26.4661 18.8543C25.9929 19.2641 25.4647 19.469 24.8815 19.469C24.3914 19.469 23.9561 19.3285 23.5759 19.0475C23.204 18.7665 22.9124 18.4036 22.7012 17.9587V24H20.5335V9.52893H22.7012V10.9163ZM25.7943 14.4112C25.7943 13.6618 25.6421 13.0764 25.3379 12.655C25.0421 12.2218 24.6745 12.0052 24.235 12.0052C23.804 12.0052 23.4364 12.2218 23.1322 12.655C22.8364 13.0882 22.6885 13.6794 22.6885 14.4287C22.6885 15.178 22.8364 15.7693 23.1322 16.2025C23.4364 16.6357 23.804 16.8523 24.235 16.8523C24.666 16.8523 25.0337 16.6357 25.3379 16.2025C25.6421 15.7576 25.7943 15.1605 25.7943 14.4112Z" fill="white"/>
</svg>
